<svg height="512pt" viewBox="0 0 512.3504 512" width="512pt" xmlns="http://www.w3.org/2000/svg"><path d="m307.199219 452.441406h-68.265625c-4.714844 0-8.535156 3.820313-8.535156 8.535156 0 4.710938 3.820312 8.53125 8.535156 8.53125h68.265625c4.714843 0 8.535156-3.820312 8.535156-8.53125 0-4.714843-3.820313-8.535156-8.535156-8.535156zm0 0"/><path d="m435.199219 324.441406h-42.664063c-9.425781 0-17.070312 7.640625-17.070312 17.066406v34.132813c0 9.425781 7.644531 17.066406 17.070312 17.066406h42.664063c9.425781 0 17.066406-7.640625 17.066406-17.066406v-34.132813c0-9.425781-7.640625-17.066406-17.066406-17.066406zm-42.664063 51.199219v-34.132813h42.664063v34.132813zm0 0"/><path d="m375.464844 256.175781v34.132813c0 9.425781 7.644531 17.066406 17.070312 17.066406h42.664063c9.425781 0 17.066406-7.640625 17.066406-17.066406v-34.132813c0-9.425781-7.640625-17.066406-17.066406-17.066406h-42.664063c-9.425781 0-17.070312 7.640625-17.070312 17.066406zm59.734375 34.132813h-42.664063v-34.132813h42.664063zm0 0"/><path d="m341.332031 239.109375h-42.664062c-9.425781 0-17.066407 7.640625-17.066407 17.066406v34.132813c0 9.425781 7.640626 17.066406 17.066407 17.066406h42.664062c9.425781 0 17.066407-7.640625 17.066407-17.066406v-34.132813c0-9.425781-7.640626-17.066406-17.066407-17.066406zm-42.664062 51.199219v-34.132813h42.664062v34.132813zm0 0"/><path d="m498.695312 228.867188c3.773438 2.828124 9.121094 2.066406 11.949219-1.707032 2.828125-3.769531 2.0625-9.117187-1.707031-11.945312l-136.882812-102.75c-3.035157-2.273438-7.207032-2.273438-10.242188 0l-136.53125 102.402344c-3.773438 2.824218-4.535156 8.175781-1.707031 11.945312s8.175781 4.535156 11.945312 1.707031l11.945313-8.960937v190.214844h-92.507813c5.097657-10.636719 7.558594-22.34375 7.175781-34.132813 0-21.460937-17.757812-34.132813-33.425781-45.351563-13.507812-9.660156-26.308593-18.785156-26.308593-31.445312-.074219-30.527344 13.03125-39.757812 63.148437-70.214844 8.0625-4.90625 16.957031-10.308594 26.699219-16.398437 71.800781-44.894531 64.09375-164.910157 63.753906-169.996094 0-.175781-.121094-.324219-.144531-.5-1.707031-28.519531-67.011719-41.558594-127.855469-41.558594-61.652344 0-128 13.34375-128 42.667969.378906 18.300781 3.402344 36.453125 8.96875 53.894531 2.609375 7.832031 5.28125 14.6875 7.800781 21.128907 11.417969 24.027343 14.5625 51.160156 8.949219 77.167968-1.542969 9.257813-3.71875 18.773438-5.820312 27.972656-9.769532 42.75-19.898438 86.925782 25.839843 125.054688 16.582031 13.429688 35.671875 23.421875 56.160157 29.398438 20.664062 6.9375 28.839843 9.761718 27.007812 32.3125h-116.105469c-7.046875 0-12.769531 5.695312-12.800781 12.742187v76.917969c.03125 7.046875 5.753906 12.742187 12.800781 12.742187h486.398438c7.046875 0 12.769531-5.695312 12.800781-12.742187v-76.917969c-.03125-7.046875-5.753906-12.742187-12.800781-12.742187h-12.800781v-190.136719zm-456.667968 90.675781c-6.09375-8.121094-10.226563-17.542969-12.066406-27.527344 18.25 3.6875 36.773437 5.863281 55.382812 6.503906v.375c.136719 9.417969 3.710938 18.464844 10.050781 25.4375-17.886719-.230469-35.726562-1.828125-53.367187-4.789062zm195.351562-231.328125c-9.417968 11.230468-52.546875 22.894531-109.378906 22.894531-43 0-83.25-6.964844-102.023438-17.46875-.265624-.792969-.546874-1.484375-.855468-2.296875-2.605469-8.03125-4.554688-16.261719-5.828125-24.609375 24.167969 12.800781 67.441406 18.773437 108.707031 18.773437 42.589844 0 87.398438-6.382812 111.042969-19.984374-.230469 6.585937-.714844 14.285156-1.664063 22.691406zm-109.378906 39.960937c38.613281 0 80.878906-5.453125 105.855469-17.28125-1.804688 9.15625-4.226563 18.179688-7.246094 27.007813-20.101563 9.660156-58.101563 15.871094-98.609375 15.871094-28.71875.535156-57.363281-3.050782-85.058594-10.65625-2.132812-9.367188-5.042968-18.542969-8.707031-27.425782 30.433594 8.941406 62.054687 13.148438 93.765625 12.484375zm-40.960938 153.292969c-19.601562-.578125-39.105468-2.996094-58.257812-7.226562.292969-8.230469 1.226562-16.425782 2.792969-24.507813 22.222656 4.222656 44.792969 6.363281 67.414062 6.398437-6.035156 7.316407-10.140625 16.027344-11.949219 25.335938zm31.15625-42.71875c-5.121093.195312-10.332031.359375-15.753906.359375-22.566406.140625-45.097656-1.890625-67.277344-6.078125.460938-2.0625.933594-4.128906 1.410157-6.21875 1.605469-7.007812 3.164062-14.199219 4.566406-21.425781 25.71875 5.648437 51.996094 8.371093 78.324219 8.121093 13.871094.007813 27.730468-.695312 41.523437-2.105468l-4.265625 2.625c-15.480468 9.386718-28.277344 17.171875-38.570312 24.722656zm77.269532-50.347656c-24.933594 5.621094-50.4375 8.320312-76 8.039062-25.410156.273438-50.765625-2.394531-75.5625-7.953125 1.207031-8.929687 1.652344-17.949219 1.324218-26.957031 27.097657 6.519531 54.902344 9.644531 82.773438 9.3125 30.085938.453125 60.089844-3.28125 89.148438-11.09375-5.558594 10.714844-12.90625 20.402344-21.734376 28.636719zm-67.464844-171.160156c73.191406 0 110.933594 17.917968 110.933594 25.601562 0 7.679688-37.742188 25.597656-110.933594 25.597656s-110.933594-17.917968-110.933594-25.597656c0-7.683594 37.742188-25.601562 110.933594-25.601562zm-20.667969 344.039062c-16.046875-4.71875-31.191406-12.078125-44.816406-21.777344 12.800781 1.269532 26.179687 2.003906 39.882813 2.003906 4.269531 0 8.3125-.09375 12.410156-.210937 1.328125.960937 2.660156 1.933594 3.976562 2.875 13.480469 9.660156 26.28125 18.789063 26.28125 31.46875.027344 4.488281-.339844 8.96875-1.09375 13.390625-5.382812-17.253906-20.238281-22.238281-36.640625-27.75zm387.601563 91.160156h-145.066406c-4.714844 0-8.535157 3.820313-8.535157 8.535156 0 4.710938 3.820313 8.53125 8.535157 8.53125h145.066406v25.601563h-477.867188v-25.601563h179.199219c4.714844 0 8.535156-3.820312 8.535156-8.53125 0-4.714843-3.820312-8.535156-8.535156-8.535156h-179.199219v-25.597656h477.867188zm-162.132813-42.667968h-34.132812v-59.730469c0-4.714844 3.820312-8.535157 8.53125-8.535157h17.066406c4.714844 0 8.535156 3.820313 8.535156 8.535157zm136.53125 0h-119.464843v-59.730469c0-14.140625-11.460938-25.601563-25.601563-25.601563h-17.066406c-14.136719 0-25.597657 11.460938-25.597657 25.601563v59.730469h-17.066406v-187.730469h42.664063c4.714843 0 8.535156-3.820313 8.535156-8.535157 0-4.710937-3.820313-8.53125-8.535156-8.53125h-40.292969l100.027344-75.027343 102.398437 76.878906zm0 0"/><path d="m332.800781 213.507812c0 4.714844 3.820313 8.535157 8.53125 8.535157h68.269531c4.710938 0 8.53125-3.820313 8.53125-8.535157 0-4.710937-3.820312-8.53125-8.53125-8.53125h-68.269531c-4.710937 0-8.53125 3.820313-8.53125 8.53125zm0 0"/><path d="m307.199219 59.910156h89.601562c16.492188 0 29.867188-13.375 29.867188-29.867187 0-16.496094-13.375-29.867188-29.867188-29.867188h-12.800781c-4.710938 0-8.535156 3.820313-8.535156 8.53125 0 4.714844 3.824218 8.535157 8.535156 8.535157h12.800781c7.070313 0 12.800781 5.730468 12.800781 12.800781 0 7.066406-5.730468 12.800781-12.800781 12.800781h-89.601562c-4.710938 0-8.53125 3.820312-8.53125 8.53125 0 4.714844 3.820312 8.535156 8.53125 8.535156zm0 0"/><path d="m469.332031 52.441406h12.800781c7.070313 0 12.800782 5.730469 12.800782 12.800782 0 7.070312-5.730469 12.800781-12.800782 12.800781h-89.597656c-4.714844 0-8.535156 3.820312-8.535156 8.53125 0 4.714843 3.820312 8.535156 8.535156 8.535156h89.597656c16.496094 0 29.867188-13.371094 29.867188-29.867187 0-16.496094-13.371094-29.867188-29.867188-29.867188h-12.800781c-4.710937 0-8.53125 3.820312-8.53125 8.535156 0 4.710938 3.820313 8.53125 8.53125 8.53125zm0 0"/></svg>