<svg height="512" viewBox="0 0 60 60" width="512" xmlns="http://www.w3.org/2000/svg"><g id="Page-1"><g id="016---Volcano" transform="translate(-1)"><path id="Shape" d="m26.953 16c-1.2695165-.0011146-2.4006514.8013934-2.819 2h-2.174c-1.6223341-.0007302-2.9513301 1.288396-3 2.91-.16 5.49-1.008 15.721-4.834 22.605-4.195 7.559-12.679 14.645-12.765 14.715-.32471377.2690667-.4457359.7129175-.30253886 1.1095666.14319705.3966491.51983311.6608368.94153886.6604334h58c.4209191.0005699.7971336-.2624979.9410698-.6580425.1439361-.3955447.0247758-.8388762-.2980698-1.1089575-.085-.07-8.483-7.157-12.689-14.718-3.821-6.885-4.72-17.128-4.914-22.615-.0402897-1.6197624-1.3697628-2.909218-2.99-2.9h-2.184c-.4183486-1.1986066-1.5494835-2.0011146-2.819-2h-.047v-2h10c1.4290624-.0225077 2.7375628-.8057014 3.4326017-2.0545596s.6710235-2.77364957-.063-4.00000003c-.7340235-1.22635045-2.0665393-1.96794813-3.4956017-1.94544037-.337566-1.31552824-1.3206612-2.36927362-2.6096381-2.79717998-1.2889769-.42790637-2.7070762-.17129426-3.7643619.68117998-.8162353-.66383238-1.8639682-.97383169-2.91-.861-.7911298-1.83129872-2.5951212-3.01709809-4.59-3.01709809s-3.7988702 1.18579937-4.59 3.01709809c-1.0459399-.11181687-2.0932896.19806909-2.91.861-1.0572857-.85247424-2.475385-1.10908635-3.7643619-.68117998-1.2889769.42790636-2.2720721 1.48165174-2.6096381 2.79717998-1.4290624-.02250776-2.7615782.71908992-3.4956017 1.94544037-.7340235 1.22635046-.7580389 2.75114183-.063 4.00000003s2.0035393 2.0320519 3.4326017 2.0545596h10v2zm30.424 42h-13.027c-2.0484822-1.5998407-3.5734397-3.7741236-4.38-6.245-.1347575-.5357162-.6782838-.8607574-1.214-.7259999-.5357162.1347574-.8607574.6782837-.726 1.2139999.6568866 2.1564772 1.8112345 4.1284596 3.37 5.757h-11.2c.511-2.97 1.8-10.7 1.8-14 0-.5522847-.4477153-1-1-1s-1 .4477153-1 1c0 3.24-1.38 11.388-1.838 14h-12.919c1.7066312-2.0365916 3.2494456-4.2050248 4.614-6.485.1918041-.3065026.2032165-.6926712.0298476-1.0099658-.173369-.3172946-.5045139-.5162906-.8660598-.5204443-.3615458-.0041536-.6971751.1871822-.8777878.5004101-1.5997768 2.6858239-3.4662111 5.2035503-5.571 7.515h-7.929c2.86-2.633 8.1-7.869 11.231-13.514.322-.58.618-1.187.9-1.8.4596086 1.4316812 1.4933136 2.6080911 2.854 3.248 1.6946356.7600898 3.6619282.5890866 5.2-.452 2.534-1.72 4.172-5.833 4.172-10.482 0-2.391.885-4.087 2.367-4.536 1.0724709-.3072185 2.218108.1391708 2.8 1.091.6417194 1.4848501 1.1179244 3.0358701 1.42 4.625 1.5 6.061 3.708 14.985 9.993 14.984.5515685-.002473 1.101197-.0655177 1.639-.188.9488209-.207404 1.8705714-.5234902 2.747-.942 2.2677945 2.8368008 4.7450699 5.4995961 7.411 7.966zm-21.332-39.062c.1347937 2.7731299.4605657 5.5336716.975 8.262.0950537.4656663.5047314.800097.98.8.0671846.000387.1342224-.0063167.2-.02.2599387-.0529946.4881678-.2071045.6344551-.428411.1462874-.2213065.1986434-.4916715.1455449-.751589-.4176585-2.2485004-.7081201-4.518775-.87-6.8h1.94c.5357815.0045131.9728018.4305086.991.966.2 5.672 1.14 16.269 5.165 23.52.7609023 1.3537091 1.6020701 2.6607082 2.519 3.914-.6262672.2698604-1.2764421.4804474-1.942.629-5.21 1.151-7.352-5.641-9.254-13.324-.3212341-1.8217769-.8933405-3.5902589-1.7-5.255-1.0755705-1.6796995-3.1285011-2.450973-5.044-1.895-1.828.545-3.785 2.535-3.785 6.445 0 3.943-1.323 7.488-3.293 8.821-.9877578.6712785-2.2578944.766872-3.335.251-1.173-.471-2.327-2.315-2.117-5.252 1.6795112-5.803323 2.5873185-11.8025846 2.7-17.843.0124988-.5432822.456574-.9771438 1-.977h1.93c-.1618799 2.281225-.4523415 4.5514996-.87 6.8-.0839647.3556996.0328053.7288731.3045463.9732685s.6551639.32108 1 .2.5961521-.4206363.6554537-.7812685c.514252-2.7270105.8400233-5.4862095.975-8.258.0278546-.5302438.46906-.9440945 1-.938h8.094c.5327993-.0065452.9752056.4097852 1.001.942zm-7.045-6.938c0-2.209139-1.790861-4-4-4-.5522847 0-1 .44771525-1 1s.4477153 1 1 1c1.1045695 0 2 .8954305 2 2h-10c-.8038118.012466-1.536964-.4575593-1.8611654-1.1931966-.3242013-.7356374-.1764327-1.5938916.3751224-2.17874691.5515552-.5848553 1.3996841-.78262592 2.153043-.50205649.3072591.11592537.6518526.07360115.9219256-.11323422.2700729-.18683536.4311981-.49436538.4310744-.82276578.0015712-.06393147-.0051514-.12779693-.02-.19.0037452-.88106386.58362-1.65589215 1.4278751-1.90792577.844255-.25203361 1.7539928.07810391 2.2401249.81292577.1961648.26225416.5044975.41666809.832.41666809s.6358352-.15441393.832-.41666809c.5027903-.8053632 1.5152038-1.12759102 2.391-.761.2745977.10492278.581452.08370997.839-.058.2578245-.14197445.4405411-.38973823.5-.678.2858703-1.39587688 1.5141512-2.39810383 2.939-2.39810383s2.6531297 1.00222695 2.939 2.39810383c.0594589.28826177.2421755.53602555.5.678.257548.14170997.5644023.16292278.839.058.8758544-.36526373 1.8873951-.04331372 2.391.761.1961648.26225416.5044975.41666809.832.41666809s.6358352-.15441393.832-.41666809c.4809465-.72556373 1.3759633-1.05671835 2.2133467-.81893434.8373835.23778401 1.4247967.98989051 1.4526533 1.85993434-.007.05-.021.194-.021.244-.0001237.3284004.1610015.63593042.4310744.82276578.270073.18683537.6146665.22915959.9219256.11323422.7532486-.28054639 1.6012628-.08288977 2.1528434.50178848.5515806.58467826.6995409 1.44275982.3756252 2.17840122-.3239158.7356415-1.0567622 1.2058885-1.8604686 1.1938103h-10c0-1.1045695.8954305-2 2-2 .5522847 0 1-.44771525 1-1s-.4477153-1-1-1c-2.209139 0-4 1.790861-4 4v4h-4z"/></g></g></svg>