<svg height="512pt" viewBox="-26 0 512 512.00242" width="512pt" xmlns="http://www.w3.org/2000/svg"><path d="m273.117188 121.347656c0-84.054687 32-111.105468 34.046874-112.726562-14.726562 5.835937-28.75 13.308594-41.8125 22.273437-65.707031 42.699219-104.71875 116.296875-103.167968 194.644531 0 34.730469 17.066406 86.785157-25.601563 86.785157-3.957031-.042969-7.859375-.945313-11.433593-2.648438-14.851563-7.984375-23.707032-23.871093-22.699219-40.703125 0-26.027344 25.601562-52.136718 25.601562-52.136718-13.816406 3.71875-26.972656 9.5625-38.996093 17.320312-34.816407 21.589844-80.472657 68.523438-80.472657 165.035156 0 66.730469 39.425781 109.398438 163.84375 112.640625 4.949219.085938 10.066407.171875 15.359375.171875 76.796875 0 204.796875-26.027344 204.796875-164.949218 0-121.515626-119.464843-147.542969-119.464843-225.707032zm0 0" fill="#e3e7f2"/><path d="m392.582031 347.054688c0 138.921874-128 164.949218-204.796875 164.949218-5.292968 0-10.410156-.085937-15.359375-.171875 77.394531-2.304687 194.558594-31.828125 194.558594-164.777343 0-121.515626-119.46875-147.542969-119.46875-225.707032 0-44.714844 9.046875-73.300781 17.835937-90.453125 13.0625-8.964843 27.085938-16.4375 41.8125-22.273437-2.046874 1.621094-34.046874 28.671875-34.046874 112.726562 0 78.164063 119.464843 104.191406 119.464843 225.707032zm0 0" fill="#a4c2f7"/><path d="m187.785156 512.003906c68.265625 0 110.933594-43.402344 110.933594-112.847656 0-69.441406-68.269531-112.84375-68.269531-112.84375s34.132812 156.246094-68.265625 156.246094c-42.667969 0-59.734375-34.722656-59.734375-69.445313 0 0-25.597657 26.042969-25.597657 78.125 0 52.078125 76.800782 60.765625 110.933594 60.765625zm0 0" fill="#e3e7f2"/><path d="m150.648438 309.617188.101562.058593c3.574219 1.703125 7.476562 2.605469 11.433594 2.648438 42.667968 0 25.601562-52.054688 25.601562-86.785157-1.550781-78.347656 37.457032-151.945312 103.167969-194.644531h.058594c3.878906-8.410156 9.367187-15.976562 16.152343-22.273437-14.726562 5.835937-28.75 13.308594-41.8125 22.273437-65.707031 42.699219-104.71875 116.296875-103.167968 194.644531 0 30.070313 12.722656 73.070313-11.535156 84.078126zm0 0" fill="#fff"/><path d="m172.425781 511.832031c4.949219.085938 10.066407.171875 15.359375.171875 3.300782 0 6.730469-.070312 10.238282-.171875-124.425782-3.242187-163.839844-45.910156-163.839844-112.640625 0-96.425781 45.601562-143.359375 80.410156-164.992187 3.945312-6.1875 8.449219-12 13.457031-17.363281-13.816406 3.71875-26.972656 9.5625-38.996093 17.320312-34.816407 21.589844-80.472657 68.523438-80.472657 165.035156 0 66.730469 39.425781 109.398438 163.84375 112.640625zm0 0" fill="#fff"/><g fill="#428dff"><path d="m34.183594 213.335938c-4.710938 0-8.53125-3.820313-8.53125-8.535157v-34.132812c0-4.710938 3.820312-8.53125 8.53125-8.53125 4.714844 0 8.535156 3.820312 8.535156 8.53125v34.132812c0 4.714844-3.820312 8.535157-8.535156 8.535157zm0 0"/><path d="m51.25 196.269531h-34.132812c-4.710938 0-8.535157-3.820312-8.535157-8.535156 0-4.710937 3.824219-8.53125 8.535157-8.53125h34.132812c4.714844 0 8.535156 3.820313 8.535156 8.53125 0 4.714844-3.820312 8.535156-8.535156 8.535156zm0 0"/><path d="m384.050781 51.203125c-4.714843 0-8.535156-3.820313-8.535156-8.535156v-34.132813c0-4.710937 3.820313-8.53124975 8.535156-8.53124975 4.710938 0 8.53125 3.82031275 8.53125 8.53124975v34.132813c0 4.714843-3.820312 8.535156-8.53125 8.535156zm0 0"/><path d="m401.117188 34.136719h-34.132813c-4.714844 0-8.535156-3.820313-8.535156-8.535157 0-4.710937 3.820312-8.53125 8.535156-8.53125h34.132813c4.714843 0 8.535156 3.820313 8.535156 8.53125 0 4.714844-3.820313 8.535157-8.535156 8.535157zm0 0"/><path d="m435.25 512.003906c-4.710938 0-8.53125-3.820312-8.53125-8.535156v-34.132812c0-4.714844 3.820312-8.535157 8.53125-8.535157 4.714844 0 8.535156 3.820313 8.535156 8.535157v34.132812c0 4.714844-3.820312 8.535156-8.535156 8.535156zm0 0"/><path d="m452.316406 494.9375h-34.132812c-4.710938 0-8.53125-3.820312-8.53125-8.535156 0-4.710938 3.820312-8.535156 8.53125-8.535156h34.132812c4.714844 0 8.535156 3.824218 8.535156 8.535156 0 4.714844-3.820312 8.535156-8.535156 8.535156zm0 0"/></g><path d="m.0507812 392.535156c-.8203122-38.6875 8.5624998-76.910156 27.2031248-110.820312 10.820313-18.410156 25.003906-34.621094 41.8125-47.789063 16.894532-13.425781 36.347656-23.261719 57.175782-28.910156l3.582031 16.691406c-9.042969 2.484375-17.808594 5.890625-26.152344 10.171875-25.667969 13.296875-47.054687 33.570313-61.707031 58.488282-17.089844 31.289062-25.660156 66.523437-24.847656 102.167968zm0 0" fill="#fff"/><path d="m12.269531 350.082031c-2.269531-.351562-4.585937.226563-6.425781 1.605469-1.839844 1.375-3.046875 3.4375-3.34375 5.714844-.96875 5.800781-1.503906 11.667968-1.597656 17.546875l-.8515628 17.585937h17.0664068l.851562-16.511718c.070312-5.496094.566406-10.980469 1.488281-16.402344.570313-4.597656-2.609375-8.820313-7.1875-9.539063zm0 0" fill="#428dff"/><path d="m129.84375 221.679688-3.585938-16.691407c-20.824218 5.648438-40.28125 15.488281-57.171874 28.914063-16.8125 13.164062-30.996094 29.375-41.8125 47.785156l-4.269532 7.902344c-1.167968 1.992187-1.433594 4.386718-.730468 6.582031.703124 2.199219 2.308593 3.996094 4.417968 4.9375 4.195313 1.839844 9.109375.273437 11.460938-3.660156l3.832031-7.132813c14.648437-24.917968 36.039063-45.191406 61.703125-58.488281 8.347656-4.273437 17.113281-7.671875 26.15625-10.148437zm0 0" fill="#428dff"/><path d="m9.753906 322.714844c-.59375 2.261718-.328125 4.65625.742188 6.734375l.964844 1.339843c.367187.441407.796874.828126 1.277343 1.144532.40625.347656.867188.636718 1.359375.851562.519532.230469 1.054688.421875 1.601563.582032 2.199219.503906 4.507812.203124 6.503906-.855469 3.960937-2.300781 5.328125-7.359375 3.0625-11.339844-.527344-.96875-1.222656-1.835937-2.054687-2.558594-.820313-.746093-1.777344-1.324219-2.816407-1.707031-2.179687-.722656-4.554687-.574219-6.628906.40625-1.984375 1.21875-3.421875 3.152344-4.011719 5.402344zm0 0" fill="#428dff"/><path d="m187.785156 512.003906c-128.078125 0-187.7343748-37.957031-187.7343748-119.46875 0-4.710937 3.8203128-8.53125 8.5312498-8.53125 4.714844 0 8.535157 3.820313 8.535157 8.53125 0 47.675782 19.394531 102.402344 170.667968 102.402344 177.140625 0 196.265625-107.417969 196.265625-153.601562 0-62.804688-34.132812-97.46875-67.097656-130.988282-26.929687-27.363281-52.371094-53.210937-52.371094-90.878906-1.050781-30.609375 4.746094-61.066406 16.964844-89.148438-69.597656 38.363282-112.257813 112.089844-110.828125 191.546876 0 7.074218.785156 15.003906 1.613281 23.382812 2.234375 22.605469 4.546875 45.96875-8.074219 59.90625-7.246093 7.378906-17.351562 11.242188-27.675781 10.578125-20.519531 0-42.664062-19.574219-42.664062-51.199219 0-28.800781 26.949219-56.082031 28.097656-57.234375 3.347656-3.234375 8.671875-3.191406 11.964844.097657 3.292969 3.289062 3.34375 8.609374.113281 11.960937-.230469.230469-23.109375 23.476563-23.109375 45.175781 0 21.085938 13.285156 34.132813 25.597656 34.132813 5.492188.570312 10.964844-1.246094 15.027344-4.980469 7.546875-8.320312 5.523437-28.734375 3.738281-46.746094-.851562-8.441406-1.707031-17.152344-1.707031-25.074218.011719-166.246094 149.265625-220.847657 150.769531-221.378907 3.972656-1.402343 8.375.304688 10.367188 4.019531 1.988281 3.714844.964844 8.328126-2.40625 10.855469-.230469.179688-30.71875 25.035157-30.71875 104.105469 0 30.71875 21.996094 53.035156 47.460937 78.90625 33.757813 34.296875 72.003907 73.15625 72.003907 142.960938 0 158.363281-163.285157 170.667968-213.332032 170.667968zm0 0" fill="#428dff"/><path d="m187.785156 512.003906c-19.953125 0-119.46875-3.296875-119.46875-68.269531 0-54.109375 26.949219-81.679687 28.101563-82.832031 2.441406-2.4375 6.109375-3.167969 9.296875-1.847656 3.1875 1.320312 5.269531 4.429687 5.269531 7.882812 0 28.875 13.449219 59.730469 51.199219 59.730469 17.847656 1.183593 35.179687-6.269531 46.601562-20.035157 31.511719-39.253906 13.515625-122.351562 13.335938-123.179687-.746094-3.355469.597656-6.832031 3.402344-8.816406 2.808593-1.984375 6.535156-2.09375 9.449218-.269531 2.953125 1.84375 72.277344 46.003906 72.277344 118.167968 0 72.578125-46.890625 119.46875-119.464844 119.46875zm-91.007812-120.894531c-7.734375 16.453125-11.632813 34.449219-11.394532 52.625 0 49.769531 91.921876 51.203125 102.402344 51.203125 63.144532 0 102.398438-39.253906 102.398438-102.402344 0-42.265625-28.808594-74.4375-47.847656-91.066406 3.664062 29.867188 5.660156 83.558594-20.238282 115.839844-14.648437 17.8125-36.882812 27.621094-59.914062 26.425781-39.097656 0-58.625-24.90625-65.40625-52.625zm0 0" fill="#428dff"/></svg>