<svg height="512pt" viewBox="0 0 512.3504 512" width="512pt" xmlns="http://www.w3.org/2000/svg"><path d="m477.867188 202.585938v215.722656h-221.867188v-215.808594l110.933594-83.199219zm0 0" fill="#a4c2f7"/><path d="m452.265625 205.058594v215.722656h-204.800781v-215.804688l102.402344-76.800781zm0 0" fill="#e3e7f2"/><path d="m503.464844 422.488281v76.972657c-.003906 1.121093-.460938 2.195312-1.261719 2.980468s-1.882813 1.214844-3.003906 1.199219h-486.398438c-1.121093.015625-2.203125-.414063-3.003906-1.199219s-1.257813-1.859375-1.261719-2.980468v-76.972657c.003906-1.121093.460938-2.191406 1.261719-2.976562.800781-.785157 1.882813-1.21875 3.003906-1.203125h486.398438c1.121093-.015625 2.203125.417968 3.003906 1.203125.800781.785156 1.257813 1.855469 1.261719 2.976562zm0 0" fill="#a4c2f7"/><path d="m307.199219 332.976562h17.066406c9.425781 0 17.066406 7.640626 17.066406 17.066407v68.265625h-51.199219v-68.265625c0-9.425781 7.640626-17.066407 17.066407-17.066407zm0 0" fill="#e3e7f2"/><path d="m392.535156 332.976562h42.664063c4.714843 0 8.535156 3.820313 8.535156 8.53125v34.132813c0 4.714844-3.820313 8.535156-8.535156 8.535156h-42.664063c-4.714844 0-8.535156-3.820312-8.535156-8.535156v-34.132813c0-4.710937 3.820312-8.53125 8.535156-8.53125zm0 0" fill="#a4c2f7"/><path d="m392.535156 247.640625h42.664063c4.714843 0 8.535156 3.820313 8.535156 8.535156v34.132813c0 4.710937-3.820313 8.535156-8.535156 8.535156h-42.664063c-4.714844 0-8.535156-3.824219-8.535156-8.535156v-34.132813c0-4.714843 3.820312-8.535156 8.535156-8.535156zm0 0" fill="#a4c2f7"/><path d="m298.667969 247.640625h42.664062c4.714844 0 8.535157 3.820313 8.535157 8.535156v34.132813c0 4.710937-3.820313 8.535156-8.535157 8.535156h-42.664062c-4.714844 0-8.535157-3.824219-8.535157-8.535156v-34.132813c0-4.714843 3.820313-8.535156 8.535157-8.535156zm0 0" fill="#a4c2f7"/><path d="m503.464844 422.488281v38.488281h-494.929688v-38.488281c.003906-1.121093.460938-2.191406 1.261719-2.976562.800781-.785157 1.882813-1.21875 3.003906-1.203125h486.398438c1.121093-.015625 2.203125.417968 3.003906 1.203125.800781.785156 1.257813 1.855469 1.261719 2.976562zm0 0" fill="#a4c2f7"/><path d="m477.867188 422.488281v76.972657c-.007813 1.121093-.460938 2.195312-1.261719 2.980468s-1.882813 1.214844-3.003907 1.199219h-460.800781c-1.121093.015625-2.203125-.414063-3.003906-1.199219s-1.257813-1.859375-1.261719-2.980468v-76.972657c.003906-1.121093.460938-2.191406 1.261719-2.976562.800781-.785157 1.882813-1.21875 3.003906-1.203125h460.800781c1.121094-.015625 2.203126.417968 3.003907 1.203125.800781.785156 1.253906 1.855469 1.261719 2.976562zm0 0" fill="#e3e7f2"/><path d="m477.867188 422.488281v38.488281h-469.332032v-38.488281c.003906-1.121093.460938-2.191406 1.261719-2.976562.800781-.785157 1.882813-1.21875 3.003906-1.203125h460.800781c1.121094-.015625 2.203126.417968 3.003907 1.203125.800781.785156 1.253906 1.855469 1.261719 2.976562zm0 0" fill="#e3e7f2"/><path d="m187.734375 204.976562c-68.269531 42.664063-93.953125 51.199219-93.867187 93.867188.085937 34.132812 59.734374 42.664062 59.734374 76.796875s-17.066406 42.667969-17.066406 42.667969c4.007813-28.074219-3.328125-37.289063-17.496094-43.605469-15.957031-7.167969-40.703124-10.582031-67.839843-33.195313-51.199219-42.664062-25.597657-93.867187-17.066407-145.066406 8.535157-51.199218-5.035156-66.21875-17.066406-102.398437-5.265625-16.574219-8.136718-33.816407-8.53125-51.199219 0-17.152344 44.457032-31.40625 102.226563-33.707031 5.632812-.34375 11.351562-.429688 17.238281-.429688 65.960938 0 119.464844 15.277344 119.464844 34.136719 0 0 8.535156 119.464844-59.730469 162.132812zm0 0" fill="#7fabfa"/><path d="m153.257812 204.976562c-68.265624 42.664063-93.949218 51.199219-93.867187 93.867188.085937 33.789062 58.625 42.492188 59.648437 75.859375-15.957031-7.167969-40.703124-10.582031-67.839843-33.195313-51.199219-42.664062-25.597657-93.867187-17.066407-145.066406 8.535157-51.199218-5.035156-66.21875-17.066406-102.398437-5.265625-16.574219-8.136718-33.816407-8.53125-51.199219 0-17.152344 44.457032-31.40625 102.226563-33.707031 57.773437 2.300781 102.230469 16.554687 102.230469 33.707031 0 0 8.53125 119.464844-59.734376 162.132812zm0 0" fill="#e3e7f2"/><path d="m12.800781 503.640625h25.597657c-1.121094.015625-2.203126-.414063-3.003907-1.199219s-1.253906-1.859375-1.261719-2.980468v-76.972657c.007813-1.121093.460938-2.191406 1.261719-2.976562.800781-.785157 1.882813-1.21875 3.003907-1.203125h-25.597657c-1.121093-.015625-2.203125.417968-3.003906 1.203125-.800781.785156-1.257813 1.855469-1.261719 2.976562v76.972657c.003906 1.121093.460938 2.195312 1.261719 2.980468s1.882813 1.214844 3.003906 1.199219zm0 0" fill="#fff"/><path d="m34.132812 196.441406c-8.53125 51.199219-34.132812 102.402344 17.066407 145.066406 27.136719 22.613282 51.882812 26.027344 67.839843 33.195313 14.167969 6.316406 21.503907 15.53125 17.496094 43.605469 0 0 15.5625-7.867188 16.929688-38.398438-2.707032-2.113281-5.671875-3.867187-8.824219-5.214844-15.957031-7.160156-40.703125-10.574218-67.839844-33.1875-51.199219-42.664062-25.601562-93.867187-17.066406-145.066406 8.53125-51.199218-5.035156-66.21875-17.066406-102.398437-5.265625-16.574219-8.140625-33.816407-8.535157-51.199219 0-17.152344 44.460938-31.40625 102.230469-33.707031 1.996094-.121094 4.09375-.085938 6.117188-.15625-4.753907-.160157-9.566407-.273438-14.480469-.273438-5.886719 0-11.605469.085938-17.238281.429688-57.769531 2.300781-102.226563 16.554687-102.226563 33.707031.394532 17.382812 3.265625 34.625 8.53125 51.199219 12.03125 36.179687 25.601563 51.199219 17.066406 102.398437zm0 0" fill="#fff"/><path d="m264.535156 202.5v215.808594h-17.070312v-215.808594zm0 0" fill="#fff"/><g fill="#428dff"><path d="m307.199219 452.441406h-68.265625c-4.714844 0-8.535156 3.820313-8.535156 8.535156 0 4.710938 3.820312 8.53125 8.535156 8.53125h68.265625c4.714843 0 8.535156-3.820312 8.535156-8.53125 0-4.714843-3.820313-8.535156-8.535156-8.535156zm0 0"/><path d="m256 279.300781c3.464844.019531 6.601562-2.058593 7.929688-5.261719 1.332031-3.203124.589843-6.890624-1.871094-9.332031l-1.28125-1.023437c-.472656-.324219-.992188-.582032-1.535156-.765625-.484376-.246094-1-.421875-1.535157-.511719-.566406-.097656-1.136719-.152344-1.707031-.171875-2.257812.03125-4.421875.917969-6.058594 2.472656-.769531.816407-1.378906 1.773438-1.792968 2.816407-1.285157 3.183593-.585938 6.824218 1.792968 9.300781.816406.773437 1.773438 1.382812 2.816406 1.792969 1.027344.4375 2.128907.667968 3.242188.683593zm0 0"/><path d="m435.199219 324.441406h-42.664063c-9.425781 0-17.070312 7.640625-17.070312 17.066406v34.132813c0 9.425781 7.644531 17.066406 17.070312 17.066406h42.664063c9.425781 0 17.066406-7.640625 17.066406-17.066406v-34.132813c0-9.425781-7.640625-17.066406-17.066406-17.066406zm-42.664063 51.199219v-34.132813h42.664063v34.132813zm0 0"/><path d="m452.265625 256.175781c0-9.425781-7.640625-17.066406-17.066406-17.066406h-42.664063c-9.425781 0-17.070312 7.640625-17.070312 17.066406v34.132813c0 9.425781 7.644531 17.066406 17.070312 17.066406h42.664063c9.425781 0 17.066406-7.640625 17.066406-17.066406zm-59.730469 34.132813v-34.132813h42.664063v34.132813zm0 0"/><path d="m281.601562 256.175781v34.132813c0 9.425781 7.640626 17.066406 17.066407 17.066406h42.664062c9.425781 0 17.066407-7.640625 17.066407-17.066406v-34.132813c0-9.425781-7.640626-17.066406-17.066407-17.066406h-42.664062c-9.425781 0-17.066407 7.640625-17.066407 17.066406zm59.730469 34.132813h-42.664062v-34.132813h42.664062zm0 0"/><path d="m498.695312 228.867188c3.773438 2.828124 9.121094 2.066406 11.949219-1.707032 2.828125-3.769531 2.0625-9.117187-1.707031-11.945312l-136.882812-102.75c-3.035157-2.273438-7.207032-2.273438-10.242188 0l-136.53125 102.402344c-3.773438 2.824218-4.535156 8.175781-1.707031 11.945312s8.175781 4.535156 11.945312 1.707031l11.945313-8.960937v17.066406c0 4.714844 3.824218 8.535156 8.535156 8.535156s8.535156-3.820312 8.535156-8.535156v-14.582031h42.664063c4.714843 0 8.535156-3.820313 8.535156-8.535157 0-4.710937-3.820313-8.53125-8.535156-8.53125h-40.292969l100.027344-75.027343 102.398437 76.878906v202.945313h-119.464843v-59.730469c0-14.140625-11.460938-25.601563-25.601563-25.601563h-17.066406c-14.136719 0-25.597657 11.460938-25.597657 25.601563v59.730469h-17.066406v-104.871094c0-4.714844-3.824218-8.535156-8.535156-8.535156s-8.535156 3.820312-8.535156 8.535156v104.871094h-92.507813c5.097657-10.636719 7.558594-22.34375 7.175781-34.132813 0-21.460937-17.757812-34.132813-33.425781-45.351563-13.507812-9.660156-26.308593-18.785156-26.308593-31.445312-.074219-30.527344 13.03125-39.757812 63.148437-70.214844 8.0625-4.90625 16.957031-10.308594 26.699219-16.398437 71.800781-44.894531 64.09375-164.910157 63.753906-169.996094 0-.175781-.121094-.324219-.144531-.5-1.707031-28.519531-67.011719-41.558594-127.855469-41.558594-61.652344 0-128 13.34375-128 42.667969.378906 18.300781 3.402344 36.453125 8.96875 53.894531 2.609375 7.832031 5.28125 14.6875 7.800781 21.128907 11.417969 24.027343 14.5625 51.160156 8.949219 77.167968-1.542969 9.257813-3.71875 18.773438-5.820312 27.972656-9.769532 42.75-19.898438 86.925782 25.839843 125.054688 16.582031 13.429688 35.671875 23.421875 56.160157 29.398438 20.664062 6.9375 28.839843 9.761718 27.007812 32.3125h-116.105469c-7.046875 0-12.769531 5.695312-12.800781 12.742187v76.917969c.03125 7.046875 5.753906 12.742187 12.800781 12.742187h486.398438c7.046875 0 12.769531-5.695312 12.800781-12.742187v-76.917969c-.03125-7.046875-5.753906-12.742187-12.800781-12.742187h-12.800781v-190.136719zm-200.027343 121.175781c0-4.714844 3.820312-8.535157 8.53125-8.535157h17.066406c4.714844 0 8.535156 3.820313 8.535156 8.535157v59.730469h-34.132812zm-141.980469-136.015625c-15.445312 9.386718-28.242188 17.171875-38.535156 24.75-5.121094.195312-10.332032.355468-15.753906.355468-22.566407.144532-45.097657-1.890624-67.273438-6.074218.460938-2.066406.929688-4.128906 1.40625-6.222656 1.605469-7.003907 3.164062-14.199219 4.566406-21.425782 25.734375 5.644532 52.023438 8.359375 78.367188 8.097656 13.871094.007813 27.730468-.695312 41.523437-2.105468zm38.734375-25.597656c-24.921875 5.609374-50.410156 8.296874-75.957031 8.011718-25.410156.273438-50.765625-2.394531-75.5625-7.953125 1.207031-8.929687 1.652344-17.949219 1.324218-26.957031 27.097657 6.519531 54.902344 9.644531 82.773438 9.3125 30.085938.453125 60.089844-3.28125 89.148438-11.09375-5.558594 10.714844-12.90625 20.402344-21.734376 28.636719zm31.1875-50.484376c-20.101563 9.617188-58.101563 15.828126-98.609375 15.828126-28.71875.535156-57.363281-3.050782-85.058594-10.65625-2.132812-9.367188-5.042968-18.542969-8.707031-27.425782 30.433594 8.941406 62.054687 13.148438 93.765625 12.484375 38.613281 0 80.878906-5.453125 105.855469-17.28125-1.804688 9.15625-4.226563 18.179688-7.246094 27.007813zm-209.542969-95.101562c0-7.683594 37.742188-25.601562 110.933594-25.601562s110.933594 17.917968 110.933594 25.601562c0 7.679688-37.742188 25.597656-110.933594 25.597656s-110.933594-17.917968-110.933594-25.597656zm8.910156 50.796875c-.265624-.792969-.546874-1.484375-.855468-2.296875-2.605469-8.03125-4.554688-16.261719-5.828125-24.609375 24.167969 12.800781 67.441406 18.773437 108.707031 18.773437 42.589844 0 87.398438-6.382812 111.042969-19.984374-.230469 6.585937-.714844 14.285156-1.707031 22.691406-9.375 11.230468-52.503907 22.894531-109.335938 22.894531-43 0-83.25-6.964844-102.023438-17.46875zm5.597657 156.09375c22.222656 4.222656 44.792969 6.363281 67.414062 6.398437-6.035156 7.316407-10.140625 16.027344-11.949219 25.335938-19.601562-.578125-39.105468-2.996094-58.257812-7.226562.292969-8.230469 1.226562-16.425782 2.792969-24.507813zm10.417969 69.808594c-6.082032-8.125-10.199219-17.546875-12.03125-27.527344 18.25 3.6875 36.773437 5.863281 55.382812 6.503906v.375c.136719 9.417969 3.710938 18.464844 10.050781 25.4375-17.886719-.230469-35.726562-1.828125-53.367187-4.789062zm65.304687 41.738281c-16.042969-4.71875-31.191406-12.078125-44.816406-21.777344 12.800781 1.269532 26.179687 2.003906 39.886719 2.003906 4.265624 0 8.308593-.09375 12.40625-.210937 1.332031.960937 2.664062 1.933594 3.976562 2.875 13.515625 9.660156 26.316406 18.789063 26.316406 31.46875.027344 4.488281-.339844 8.96875-1.09375 13.390625-5.382812-17.253906-20.238281-22.238281-36.640625-27.75zm387.636719 65.5625v25.597656h-145.066406c-4.714844 0-8.535157 3.820313-8.535157 8.535156 0 4.710938 3.820313 8.53125 8.535157 8.53125h145.066406v25.601563h-477.867188v-25.601563h179.199219c4.714844 0 8.535156-3.820312 8.535156-8.53125 0-4.714843-3.820312-8.535156-8.535156-8.535156h-179.199219v-25.597656zm0 0"/><path d="m409.601562 204.976562h-68.269531c-4.710937 0-8.53125 3.820313-8.53125 8.53125 0 4.714844 3.820313 8.535157 8.53125 8.535157h68.269531c4.710938 0 8.53125-3.820313 8.53125-8.535157 0-4.710937-3.820312-8.53125-8.53125-8.53125zm0 0"/><path d="m307.199219 59.910156h89.601562c16.492188 0 29.867188-13.375 29.867188-29.867187 0-16.496094-13.375-29.867188-29.867188-29.867188h-12.800781c-4.710938 0-8.535156 3.820313-8.535156 8.53125 0 4.714844 3.824218 8.535157 8.535156 8.535157h12.800781c7.070313 0 12.800781 5.730468 12.800781 12.800781 0 7.066406-5.730468 12.800781-12.800781 12.800781h-89.601562c-4.710938 0-8.53125 3.820312-8.53125 8.53125 0 4.714844 3.820312 8.535156 8.53125 8.535156zm0 0"/><path d="m469.332031 52.441406h12.800781c7.070313 0 12.800782 5.730469 12.800782 12.800782 0 7.070312-5.730469 12.800781-12.800782 12.800781h-89.597656c-4.714844 0-8.535156 3.820312-8.535156 8.53125 0 4.714843 3.820312 8.535156 8.535156 8.535156h89.597656c16.496094 0 29.867188-13.371094 29.867188-29.867187 0-16.496094-13.371094-29.867188-29.867188-29.867188h-12.800781c-4.710937 0-8.53125 3.820312-8.53125 8.535156 0 4.710938 3.820313 8.53125 8.53125 8.53125zm0 0"/></g></svg>