<svg height="512" viewBox="0 0 60 60" width="512" xmlns="http://www.w3.org/2000/svg"><g id="Page-1" fill="none" fill-rule="evenodd"><g id="016---Volcano" fill-rule="nonzero" transform="translate(-1)"><path id="Shape" d="m60 59h-58s8.66-7.18 13-15c.9236461-1.6960541 1.6805265-3.4777372 2.26-5.32-.26 3.32 1.07 5.65 2.74 6.32 5 2 8-4 8-10s5-7 7-4 3 21 12 19c1.1401237-.2399547 2.2341416-.6620295 3.24-1.25 2.9128263 3.7254448 6.1815921 7.1583187 9.76 10.25z" fill="#cad9fc"/><path id="Shape" d="m32 31c2 3 3 21 12 19 .076-.017.143-.039.217-.057-6.454-1.875-7.446-16.286-9.217-18.943-.9334906-1.4981277-2.847443-2.0496567-4.435-1.278.5821367.2927776 1.0770258.7335219 1.435 1.278z" fill="#a4c2f7"/><path id="Shape" d="m50.24 48.75c-.7022029.4150463-1.4519657.7437601-2.233.979 2.7211895 3.347012 5.7303589 6.4492037 8.993 9.271h3c-3.5784079-3.0916813-6.8471737-6.5245552-9.76-10.25z" fill="#a4c2f7"/><path id="Shape" d="m50.24 48.75c-1.0058584.5879705-2.0998763 1.0100453-3.24 1.25-9 2-10-16-12-19s-7-2-7 4-3 12-8 10c-1.67-.67-3-3-2.74-6.32 1.6792389-5.7682016 2.5871325-11.7333991 2.7-17.74.0360518-1.079476.9199268-1.9368348 2-1.94h2.99c.0082797-.0360478.0116435-.0730501.01-.11.0498223-1.0614151.9274276-1.8949196 1.99-1.89h8.1c1.0625724-.0049196 1.9401777.8285849 1.99 1.89-.0016435.0369499.0017203.0739522.01.11h3c1.0760353-.0004892 1.9575568.8544538 1.99 1.93.18 5.06 1.01 15.81 5.04 23.07.9376367 1.6573251 1.9937158 3.2447857 3.16 4.75z" fill="#e8edfc"/><g fill="#cad9fc"><path id="Shape" d="m25 35c0 4.491-1.681 8.98-4.624 10.117 4.771 1.552 7.624-4.271 7.624-10.117 0-2.874 1.15-4.588 2.565-5.278-2.308-1.147-5.565.435-5.565 5.278z"/><path id="Shape" d="m35.05 17h-3c1.0625724-.0049196 1.9401777.8285849 1.99 1.89-.0016435.0369499.0017203.0739522.01.11h3c-.0082797-.0360478-.0116435-.0730501-.01-.11-.0498223-1.0614151-.9274276-1.8949196-1.99-1.89z"/><path id="Shape" d="m47.08 44c-4.03-7.26-4.86-18.01-5.04-23.07-.0324432-1.0755462-.9139647-1.9304892-1.99-1.93l-3-.0000002c1.0760353-.000489 1.9575568.854454 1.99 1.9300002.18 5.06 1.01 15.81 5.04 23.07.9376367 1.6573251 1.9937158 3.2447857 3.16 4.75-.941264.5488176-1.9606155.9510956-3.023 1.193.907526.2566935 1.8657246.2763188 2.783.057 1.1401237-.2399547 2.2341416-.6620295 3.24-1.25-1.1662842-1.5052143-2.2223633-3.0926749-3.16-4.75z"/></g><path id="Shape" d="m48 10c0 1.6568542-1.3431458 3-3 3h-11v4h-6v-4h-11c-1.6568542 0-3-1.3431458-3-3 0-1.65685425 1.3431458-3 3-3 .3486841.00121686.6942637.06558954 1.02.19 0-.06-.02-.13-.02-.19.0036547-1.32175195.8719313-2.48537967 2.1379449-2.86518375s2.631434.11371453 3.3620551 1.21518375c.7685749-1.18537853 2.2675136-1.6626942 3.58-1.14.378554-1.86425918 2.0176947-3.20401005 3.92-3.20401005s3.541446 1.33975087 3.92 3.20401005c1.3124864-.5226942 2.8114251-.04537853 3.58 1.14.7306211-1.10146922 2.0960415-1.59498783 3.3620551-1.21518375s2.1342902 1.5434318 2.1379449 2.86518375c0 .06-.02.13-.02.19.3257363-.12441046.6713159-.18878314 1.02-.19 1.6568542 0 3 1.34314575 3 3z" fill="#e8edfc"/><path id="Shape" d="m31.92 4.21c1.3124864-.5226942 2.8114251-.04537853 3.58 1.14.3643324-.53371022.8900018-.93672346 1.5-1.15-.3190562-.12468916-.6575293-.19238378-1-.2-.3698468.00302956-.7359659.07421937-1.08.21-.3760689-1.86664039-2.0158535-3.20942324-3.92-3.21-.5147484.00153378-1.0242577.10343563-1.5.3 1.2429155.50376502 2.1512921 1.5960692 2.42 2.91z" fill="#cad9fc"/><path id="Rectangle-path" d="m31 13h3v4h-3z" fill="#cad9fc"/><path id="Shape" d="m45 7c-.3486841.00121686-.6942637.06558954-1.02.19 0-.06.02-.13.02-.19 0-1.65685425-1.3431458-3-3-3-.5280737.00200638-1.0459892.14529632-1.5.415.9265742.53114236 1.4986315 1.51698779 1.5 2.585 0 .06-.02.13-.02.19.3257363-.12441046.6713159-.18878314 1.02-.19 1.6568542.00000003 2.9999999 1.34314578 2.9999999 3 0 1.6568542-1.3431457 3-2.9999999 3h3c1.6568542 0 3-1.3431458 3-3 0-1.65685425-1.3431458-3-3-3z" fill="#cad9fc"/><path id="Shape" d="m17 13h3c-1.6568542 0-3-1.3431458-3-3 0-1.65685425 1.3431458-3 3-3 .3486841.00121686.6942637.06558954 1.02.19 0-.06-.02-.13-.02-.19.0013685-1.06801221.5734258-2.05385764 1.5-2.585-.4540108-.26970368-.9719263-.41299362-1.5-.415-1.6568542 0-3 1.34314575-3 3 0 .06.02.13.02.19-.3257363-.12441046-.6713159-.18878314-1.02-.19-1.6568542.00000003-2.9999999 1.34314578-2.9999999 3 0 1.6568542 1.3431457 3 2.9999999 3z" fill="#fff"/><path id="Shape" d="m24.96 18.89c.0016435.0369499-.0017203.0739522-.01.11h-2.99c-1.0800732.0031652-1.9639482.860524-2 1.94-.1128675 6.0066009-1.0207611 11.9717984-2.7 17.74-.5794735 1.8422628-1.3363539 3.6239459-2.26 5.32-4.34 7.82-13 15-13 15h3s8.66-7.18 13-15c.9236461-1.6960541 1.6805265-3.4777372 2.26-5.32 1.6792389-5.7682016 2.5871325-11.7333991 2.7-17.74.0360518-1.079476.9199268-1.9368348 2-1.94" fill="#fff"/><path id="Shape" d="m9.607 49.929 1.533 1.284c-1.74344346 2.0673995-3.59959623 4.037058-5.56 5.9l-1.38-1.446c1.90662334-1.8116375 3.71170704-3.7272229 5.407-5.738z" fill="#fff"/><path id="Shape" d="m7.734 54.56c-.3572656.0016077-.68825034-.1875056-.86827545-.4961029-.18002511-.3085972-.1817405-.6897951-.0045-1s.50650985-.5022894.86377545-.5038971h.009c.55228475 0 1 .4477153 1 1s-.44771525 1-1 1z" fill="#428dff"/><path id="Shape" d="m5.614 55.7c-.18311553-.1919135-.43497801-.3032103-.7001643-.3093992-.2651863-.0061889-.52196664.0932371-.7138357.2763992-1.659 1.583-2.827 2.554-2.839 2.563-.32471377.2690667-.4457359.7129175-.30253886 1.1095666.14319705.3966491.51983311.6608368.94153886.6604334h58c.4209191.0005699.7971336-.2624979.9410698-.6580425.1439361-.3955447.0247758-.8388762-.2980698-1.1089575-.085-.07-8.483-7.157-12.689-14.718-3.821-6.885-4.72-17.128-4.914-22.615-.0402897-1.6197624-1.3697628-2.909218-2.99-2.9h-2.184c-.4183486-1.1986066-1.5494835-2.0011146-2.819-2h-.047v-2h10c1.4290624-.0225077 2.7375628-.8057014 3.4326017-2.0545596s.6710235-2.77364957-.063-4.00000003c-.7340235-1.22635045-2.0665393-1.96794813-3.4956017-1.94544037-.337566-1.31552824-1.3206612-2.36927362-2.6096381-2.79717998-1.2889769-.42790637-2.7070762-.17129426-3.7643619.68117998-.8162353-.66383238-1.8639682-.97383169-2.91-.861-.7911298-1.83129872-2.5951212-3.01709809-4.59-3.01709809s-3.7988702 1.18579937-4.59 3.01709809c-1.0459399-.11181687-2.0932896.19806909-2.91.861-1.0572857-.85247424-2.475385-1.10908635-3.7643619-.68117998-1.2889769.42790636-2.2720721 1.48165174-2.6096381 2.79717998-1.4290624-.02250776-2.7615782.71908992-3.4956017 1.94544037-.7340235 1.22635046-.7580389 2.75114183-.063 4.00000003s2.0035393 2.0320519 3.4326017 2.0545596h10v2h-.047c-1.2695165-.0011146-2.4006514.8013934-2.819 2h-2.174c-1.6223341-.0007302-2.9513301 1.288396-3 2.91-.163 5.487-1.008 15.721-4.834 22.6-1.3041917 2.2734983-2.8170424 4.4207487-4.519 6.414-.34539589.4218955-.29314093 1.0418697.118 1.4.20219105.1748877.4664102.2607662.732787.2381759.2663768-.0225902.5123606-.1517368.682213-.3581759 1.7839803-2.0904241 3.3688602-4.3428686 4.734-6.728.322-.579.618-1.186.9-1.8.4596086 1.4316812 1.4933136 2.6080911 2.854 3.248 1.6946356.7600898 3.6619282.5890866 5.2-.452 2.534-1.71 4.172-5.823 4.172-10.472 0-2.391.885-4.087 2.367-4.536 1.0724709-.3072185 2.218108.1391708 2.8 1.091.6417194 1.4848501 1.1179244 3.0358701 1.42 4.625 1.5 6.061 3.708 14.985 9.993 14.984.5515685-.002473 1.101197-.0655177 1.639-.188.9488209-.207404 1.8705714-.5234902 2.747-.942 2.2677945 2.8368008 4.7450699 5.4995961 7.411 7.966h-13.027c-2.0484822-1.5998407-3.5734397-3.7741236-4.38-6.245-.1347575-.5357162-.6782838-.8607574-1.214-.7259999-.5357162.1347574-.8607574.6782837-.726 1.2139999.6568866 2.1564772 1.8112345 4.1284596 3.37 5.757h-11.2c.511-2.97 1.8-10.7 1.8-14 0-.5522847-.4477153-1-1-1s-1 .4477153-1 1c0 3.24-1.38 11.388-1.838 14h-12.919c1.7066312-2.0365916 3.2494456-4.2050248 4.614-6.485.1918041-.3065026.2032165-.6926712.0298476-1.0099658-.173369-.3172946-.5045139-.5162906-.8660598-.5204443-.3615458-.0041536-.6971751.1871822-.8777878.5004101-1.5997768 2.6858239-3.4662111 5.2035503-5.571 7.515h-7.935c.291-.269.607-.564.944-.885.19221735-.183152.30370925-.435226.30989952-.7006575.00619027-.2654314-.09342928-.5224289-.27689952-.7143425zm23.386-43.7c0-2.209139-1.790861-4-4-4-.5522847 0-1 .44771525-1 1s.4477153 1 1 1c1.1045695 0 2 .8954305 2 2h-10c-.8038118.012466-1.536964-.4575593-1.8611654-1.1931966-.3242013-.7356374-.1764327-1.5938916.3751224-2.17874691.5515552-.5848553 1.3996841-.78262592 2.153043-.50205649.3072591.11592537.6518526.07360115.9219256-.11323422.2700729-.18683536.4311981-.49436538.4310744-.82276578.0015712-.06393147-.0051514-.12779693-.02-.19.0037452-.88106386.58362-1.65589215 1.4278751-1.90792577.844255-.25203361 1.7539928.07810391 2.2401249.81292577.1961648.26225416.5044975.41666809.832.41666809s.6358352-.15441393.832-.41666809c.5027903-.8053632 1.5152038-1.12759102 2.391-.761.2745977.10492278.581452.08370997.839-.058.2578245-.14197445.4405411-.38973823.5-.678.2858703-1.39587688 1.5141512-2.39810383 2.939-2.39810383s2.6531297 1.00222695 2.939 2.39810383c.0594589.28826177.2421755.53602555.5.678.257548.14170997.5644023.16292278.839.058.8758544-.36526373 1.8873951-.04331372 2.391.761.1961648.26225416.5044975.41666809.832.41666809s.6358352-.15441393.832-.41666809c.4809465-.72556373 1.3759633-1.05671835 2.2133467-.81893434.8373835.23778401 1.4247967.98989051 1.4526533 1.85993434-.007.05-.021.194-.021.244-.0001237.3284004.1610015.63593042.4310744.82276578.270073.18683537.6146665.22915959.9219256.11323422.7532486-.28054639 1.6012628-.08288977 2.1528434.50178848.5515806.58467826.6995409 1.44275982.3756252 2.17840122-.3239158.7356415-1.0567622 1.2058885-1.8604686 1.1938103h-10c0-1.1045695.8954305-2 2-2 .5522847 0 1-.44771525 1-1s-.4477153-1-1-1c-2.209139 0-4 1.790861-4 4v4h-4zm17.783 37.024c-5.21 1.151-7.352-5.641-9.254-13.324-.3212341-1.8217769-.8933405-3.5902589-1.7-5.255-1.0755705-1.6796995-3.1285011-2.450973-5.044-1.895-1.828.55-3.785 2.54-3.785 6.45 0 3.943-1.323 7.488-3.293 8.821-.9877578.6712785-2.2578944.766872-3.335.251-1.173-.471-2.327-2.315-2.117-5.252 1.6795112-5.803323 2.5873185-11.8025846 2.7-17.843.0124988-.5432822.456574-.9771438 1-.977h1.93c-.1618799 2.281225-.4523415 4.5514996-.87 6.8-.0839647.3556996.0328053.7288731.3045463.9732685s.6551639.32108 1 .2.5961521-.4206363.6554537-.7812685c.514252-2.7270105.8400233-5.4862095.975-8.258.0278546-.5302438.46906-.9440945 1-.938h8.094c.53094-.0060945.9721454.4077562 1 .938.1349407 2.7744924.4610476 5.5363771.976 8.266.0950537.4656663.5047314.800097.98.8.0671846.000387.1342224-.0063167.2-.02.2599387-.0529946.4881678-.2071045.6344551-.428411.1462874-.2213065.1986434-.4916715.1455449-.751589-.4176585-2.2485004-.7081201-4.518775-.87-6.8h1.94c.5357815.0045131.9728018.4305086.991.966.2 5.672 1.14 16.269 5.165 23.52.7609023 1.3537091 1.6020701 2.6607082 2.519 3.914-.6264402.2681523-1.2766108.4770639-1.942.624z" fill="#428dff"/></g></g></svg>